<svg width="1760" height="1760" xmlns="http://www.w3.org/2000/svg" xmlns:xlink="http://www.w3.org/1999/xlink" xml:space="preserve" overflow="hidden"><defs><clipPath id="clip0"><rect x="1320" y="358" width="1760" height="1760"/></clipPath></defs><g clip-path="url(#clip0)" transform="translate(-1320 -358)"><path d="M3080 1238C3080 1724.01 2686.01 2118 2200 2118 1713.99 2118 1320 1724.01 1320 1238 1320 751.989 1713.99 358 2200 358 2686.01 358 3080 751.989 3080 1238Z" fill="#262626" fill-rule="evenodd"/><path d="M2046.27 718.003C2093.36 717.864 2137.9 739.325 2167 776.186 2052.35 782.58 1956.74 865.746 1934.98 978.003 1875.97 916.797 1877.97 819.551 1939.45 760.799 1968.17 733.344 2006.45 718.01 2046.27 718.003Z" fill="#FFAC5A" fill-rule="evenodd"/><path d="M2218.69 718.594C2237.26 739.35 2251.93 763.289 2262 789.26 2235.91 780.348 2208.53 775.794 2180.96 775.781 2176.15 775.781 2171.53 775.974 2166.71 776.359 2114.47 709.229 2017.71 697.173 1950.6 749.432 1883.48 801.691 1871.43 898.476 1923.68 965.606 1927.25 970.192 1931.07 974.573 1935.14 978.728 1929.11 1010.55 1929.24 1043.23 1935.52 1075 1823.5 1013.95 1782.16 873.616 1843.2 761.558 1904.24 649.501 2044.53 608.153 2156.56 669.207 2179.96 681.961 2200.98 698.67 2218.69 718.594Z" fill="#FF873C" fill-rule="evenodd"/><path d="M2469 852.788 2399.59 905.003C2376 862.114 2340.32 827.13 2297 804.413L2353.95 776.002Z" fill="#FFBEAA" fill-rule="evenodd"/><path d="M2431 1026C2431 1164.07 2319.07 1276 2181 1276 2042.93 1276 1931 1164.07 1931 1026 1931 887.93 2042.93 776.001 2181 776.001 2319.07 776.001 2431 887.93 2431 1026Z" fill="#FFAC5A" fill-rule="evenodd"/><path d="M2796 756.002 2796 1064 2680 1064 2680 756.002Z" fill="#C2ADFC" fill-rule="evenodd"/><path d="M2796 756.002 2796 1064 2738 1064 2738 756.002Z" fill="#9873FE" fill-rule="evenodd"/><path d="M2351.85 1006.41C2352.62 1012.82 2353 1019.26 2353 1025.71 2353.16 1121.81 2275.61 1199.84 2179.79 1200 2083.97 1200.16 2006.16 1122.39 2006 1026.29 2005.84 930.193 2083.39 852.162 2179.21 852.002 2228.64 851.921 2275.76 872.984 2308.73 909.907L2247.15 909.907C2220.58 909.907 2199.03 931.511 2199.03 958.16 2199.03 984.809 2220.58 1006.41 2247.15 1006.41Z" fill="#FFDFB0" fill-rule="evenodd"/><path d="M2141.19 871.298C2180.69 871.31 2218.99 884.933 2249.66 909.88L2308.71 909.88C2251.1 845.282 2154.74 833.185 2083 881.542 2101.67 874.807 2121.35 871.343 2141.19 871.298ZM2351.84 1006.33 2247.09 1006.33C2220.59 1006.42 2199.04 984.968 2198.95 958.418 2198.92 947.856 2202.36 937.578 2208.74 929.171L2208.58 929.171C2182 929.171 2160.45 950.763 2160.45 977.398 2160.45 1004.03 2182 1025.63 2208.58 1025.63L2313.33 1025.63C2314.11 1032.03 2314.49 1038.47 2314.49 1044.92 2314.52 1102.73 2285.79 1156.76 2237.89 1189 2306.86 1164.37 2352.93 1098.98 2353 1025.63 2353 1019.18 2352.62 1012.74 2351.84 1006.33Z" fill="#FFCF94" fill-rule="evenodd"/><path d="M2308.87 871.766C2245.22 800.469 2135.9 794.327 2064.69 858.05 2027.95 890.926 2006.96 937.934 2007 987.27 2007.12 993.307 2007.56 999.334 2008.31 1005.33 2019.48 910.404 2105.39 842.518 2200.2 853.703 2242.1 858.646 2280.75 878.765 2308.87 910.267L2391.55 910.267 2398.85 904.877C2392.34 893.265 2384.9 882.192 2376.62 871.766ZM2351.96 1045.02 2391.55 1045.02C2402.81 1052.03 2414.66 1058.05 2426.96 1063 2428.89 1050.68 2429.91 1038.24 2430 1025.77 2416.61 1020.58 2403.73 1014.13 2391.55 1006.52L2351.94 1006.52C2352.71 1012.91 2353.09 1019.34 2353.09 1025.77 2353.07 1032.2 2352.69 1038.63 2351.96 1045.02Z" fill="#FC9942" fill-rule="evenodd"/><path d="M2199.25 1006.25 2160.75 1006.25C2150.12 1006.25 2141.5 997.633 2141.5 987.001 2141.5 976.37 2150.12 967.751 2160.75 967.751L2199.25 967.751C2209.88 967.751 2218.5 976.37 2218.5 987.001L2257 987.001C2257 955.106 2231.15 929.251 2199.25 929.251L2199.25 910.001 2160.75 910.001 2160.75 929.251C2128.85 929.251 2103 955.106 2103 987.001 2103 1018.9 2128.85 1044.75 2160.75 1044.75L2199.25 1044.75C2209.88 1044.75 2218.5 1053.37 2218.5 1064 2218.5 1074.63 2209.88 1083.25 2199.25 1083.25L2160.75 1083.25C2150.12 1083.25 2141.5 1074.63 2141.5 1064L2103 1064C2103 1095.9 2128.85 1121.75 2160.75 1121.75L2160.75 1141 2199.25 1141 2199.25 1121.75C2231.15 1121.75 2257 1095.9 2257 1064 2257 1032.11 2231.15 1006.25 2199.25 1006.25Z" fill="#FF873C" fill-rule="evenodd"/><path d="M2681 794.907 2681 1025.76C2630.52 1037.64 2578.92 1044.09 2527.08 1045 2494.09 1044.71 2461.45 1038.18 2430.88 1025.76 2417.48 1020.57 2404.59 1014.13 2392.4 1006.53L2248.1 1006.53C2221.53 1006.53 2200 984.993 2200 958.431 2200 931.869 2221.53 910.336 2248.1 910.336L2392.4 910.336 2399.71 904.949 2469.36 852.621 2353.92 775.669 2296.78 804.141C2285.51 798.241 2273.8 793.224 2261.76 789.136 2251.7 763.188 2237.03 739.269 2218.47 718.532L2219.24 717.955 2334.68 641.002Z" fill="#FFCDBE" fill-rule="evenodd"/><path d="M2334.33 641.003 2218.77 717.803 2218 718.379C2225.09 726.372 2231.6 734.854 2237.49 743.762L2334.33 679.403 2681 833.003 2681 794.603Z" fill="#FFD8CF" fill-rule="evenodd"/><path d="M2429.87 987.183C2416.47 981.981 2403.59 975.529 2391.39 967.911L2247.09 967.911C2227.97 967.901 2210.67 956.551 2203.03 939.002 2192.4 963.389 2203.52 991.789 2227.87 1002.43 2233.93 1005.08 2240.47 1006.45 2247.09 1006.46L2391.39 1006.46C2403.59 1014.07 2416.47 1020.53 2429.87 1025.73 2460.44 1038.17 2493.08 1044.71 2526.07 1045 2577.92 1044.09 2629.52 1037.63 2680 1025.73L2680 987.183C2629.52 999.08 2577.92 1005.54 2526.07 1006.46 2493.08 1006.16 2460.44 999.626 2429.87 987.183Z" fill="#FFBEAA" fill-rule="evenodd"/><path d="M2129.25 742.002C2024.71 761.005 1939.03 835.428 1906 935.912 1913.16 951.423 1922.86 965.644 1934.7 978.003 1956.48 865.698 2052.21 782.498 2167 776.101 2156.43 762.703 2143.67 751.175 2129.25 742.002Z" fill="#FC9942" fill-rule="evenodd"/><path d="M2129 741.916C2143.39 751.117 2156.12 762.681 2166.66 776.121 2171.47 775.736 2176.1 775.543 2180.91 775.543 2208.5 775.555 2235.89 780.112 2262 789.032 2255.56 772.68 2247.3 757.108 2237.37 742.61 2201.63 735.374 2164.83 735.138 2129 741.916ZM1930.52 1026.06C1930.53 1010.15 1932.01 994.281 1934.95 978.651 1923.15 966.254 1913.47 951.989 1906.33 936.43 1896.86 965.36 1892.02 995.61 1892 1026.06 1892 1032.47 1892.54 1038.75 1892.96 1045.06 1905.91 1056.6 1920.13 1066.65 1935.34 1075 1932.16 1058.88 1930.55 1042.49 1930.52 1026.06Z" fill="#FA732D" fill-rule="evenodd"/><path d="M2483.2 1193.56 2527.28 1149.53 2527.28 1372 2565.73 1372 2565.73 1149.53 2609.81 1193.56 2637 1166.41 2560.1 1089.61 2559.96 1089.74C2552.68 1082.25 2540.69 1082.07 2533.19 1089.34 2533.09 1089.43 2532.99 1089.53 2532.9 1089.63L2456 1166.43Z" fill="#FFFFFF" fill-rule="evenodd"/><path d="M2546 1622.5C2546 1696.78 2485.78 1757 2411.5 1757 2337.22 1757 2277 1696.78 2277 1622.5 2277 1548.22 2337.22 1488 2411.5 1488 2485.78 1488 2546 1548.22 2546 1622.5Z" fill="#FFC170" fill-rule="evenodd"/><path d="M2489 1622.5C2489 1664.75 2454.52 1699 2412 1699 2369.47 1699 2335 1664.75 2335 1622.5 2335 1580.25 2369.47 1546 2412 1546 2454.52 1546 2489 1580.25 2489 1622.5Z" fill="#FFCF94" fill-rule="evenodd"/><path d="M2268.41 1366.64 2642.55 1276 2681 1411 2085 1411Z" fill="#9873FE" fill-rule="evenodd"/><path d="M2797 1411 2797 1834 2027 1834 2027 1680.18 2104 1680.18 2104 1718.63C2125.24 1718.7 2142.44 1735.88 2142.5 1757.09L2681.5 1757.09C2681.56 1735.88 2698.76 1718.7 2720 1718.63L2720 1526.36C2698.76 1526.3 2681.56 1509.12 2681.5 1487.91L2142.5 1487.91C2142.44 1509.12 2125.24 1526.3 2104 1526.36L2104 1584.04 2027 1584.04 2027 1411Z" fill="#C2ADFC" fill-rule="evenodd"/><path d="M2103.71 1718.63 2103.71 1680.18 2026.68 1680.18 2026.68 1834 2065.19 1834 2065.19 1757.09C2065.19 1735.85 2082.44 1718.63 2103.71 1718.63ZM2065.19 1507.13C2065.19 1475.28 2091.06 1449.45 2122.97 1449.45L2797 1449.45 2797 1411 2026.68 1411 2026.68 1584.04 2065.19 1584.04ZM1718.55 1699.41 1718.55 1737.86 1603 1737.86 1603 1430.23 1718.55 1430.23 1718.55 1468.68Z" fill="#9873FE" fill-rule="evenodd"/><path d="M1719 1699.5 1719 1738 1661 1738 1661 1430 1719 1430 1719 1468.5Z" fill="#C2ADFC" fill-rule="evenodd"/><path d="M2026.78 1584.33 2151.81 1584.33C2178.37 1584.33 2199.91 1605.86 2199.91 1632.43 2199.91 1658.99 2178.37 1680.52 2151.81 1680.52L2007.54 1680.52C1966.9 1705.14 1920.4 1718.43 1872.89 1719 1821.05 1718.08 1769.47 1711.64 1719 1699.76L1719 1468.9 2065.25 1315 2219.14 1334.24 2268 1366.94 2084.49 1411.19 2026.78 1411.19Z" fill="#FFCDBE" fill-rule="evenodd"/><path d="M2084.49 1372.11 2065.25 1372.11C2044 1372.11 2026.78 1389.36 2026.78 1410.65L2084.49 1410.65 2268 1366.33 2225.68 1338ZM2185.86 1627.84C2176.83 1636.87 2164.58 1641.94 2151.81 1641.91L2007.54 1641.91C1966.9 1666.57 1920.4 1679.88 1872.89 1680.46 1821.05 1679.54 1769.47 1673.08 1719 1661.18L1719 1699.73C1769.47 1711.62 1821.05 1718.08 1872.89 1719 1920.4 1718.43 1966.9 1705.12 2007.54 1680.46L2151.81 1680.46C2178.32 1680.51 2199.86 1659.03 2199.91 1632.48 2199.93 1625.77 2198.54 1619.14 2195.85 1613 2193.48 1618.54 2190.09 1623.57 2185.86 1627.84Z" fill="#FFBEAA" fill-rule="evenodd"/><path d="M2104 1680.14 2152.12 1680.14C2178.7 1680.14 2200.25 1658.63 2200.25 1632.11 2200.25 1605.58 2178.7 1584.07 2152.12 1584.07L2104 1584.07 2104 1526.43C2125.24 1526.36 2142.44 1509.2 2142.5 1488L2412 1488C2337.58 1488 2277.25 1548.22 2277.25 1622.5 2277.25 1696.78 2337.58 1757 2412 1757L2142.5 1757C2142.44 1735.8 2125.24 1718.63 2104 1718.57ZM2720 1526.43 2720 1718.57C2698.76 1718.63 2681.56 1735.8 2681.5 1757L2412 1757C2486.42 1757 2546.75 1696.78 2546.75 1622.5 2546.75 1548.22 2486.42 1488 2412 1488L2681.5 1488C2681.56 1509.2 2698.76 1526.36 2720 1526.43Z" fill="#F0F0F0" fill-rule="evenodd"/><path d="M2027 1411 2027 1584 2007.8 1584 1931 1526.33C1932.38 1500.32 1940.09 1475.05 1953.47 1452.71 1967.48 1429.26 1986.68 1411 2007.8 1411Z" fill="#FAA68E" fill-rule="evenodd"/><path d="M1781.8 1204.38 1737.72 1248.43 1737.72 1025.85 1699.27 1025.85 1699.27 1248.43 1655.19 1204.38 1628 1231.54 1704.9 1308.39 1705.04 1308.26C1712.32 1315.76 1724.31 1315.94 1731.81 1308.66 1731.91 1308.56 1732.01 1308.47 1732.1 1308.37L1809 1231.52ZM1699.27 949.001 1737.72 949.001 1737.72 987.424 1699.27 987.424Z" fill="#FFFFFF" fill-rule="evenodd"/><path d="M2430.79 1592.28 2483 1540.2 2455.73 1513 2411.5 1557.11 2367.27 1513 2340 1540.2 2392.21 1592.28 2392.21 1603.56 2353.64 1603.56 2353.64 1642.04 2392.21 1642.04 2392.21 1661.28 2353.64 1661.28 2353.64 1699.76 2392.21 1699.76 2392.21 1719 2430.79 1719 2430.79 1699.76 2469.36 1699.76 2469.36 1661.28 2430.79 1661.28 2430.79 1642.04 2469.36 1642.04 2469.36 1603.56 2430.79 1603.56Z" fill="#FF873C" fill-rule="evenodd"/></g></svg>